<?xml version="1.0" standalone="no"?><!DOCTYPE svg PUBLIC "-//W3C//DTD SVG 1.1//EN" "http://www.w3.org/Graphics/SVG/1.1/DTD/svg11.dtd"><svg t="1513411212448" class="icon" style="" viewBox="0 0 1024 1024" version="1.1" xmlns="http://www.w3.org/2000/svg" p-id="2046" xmlns:xlink="http://www.w3.org/1999/xlink" width="200" height="200"><defs><style type="text/css"></style></defs><path d="M806.2 217.8c-162.4-162.4-425.8-162.4-588.4 0s-162.4 425.8 0 588.4c162.4 162.4 425.8 162.4 588.4 0S968.6 380.2 806.2 217.8zM781.6 781.6c-148.6 148.6-390.6 148.6-539.2 0-148.6-148.6-148.6-390.6 0-539.2s390.6-148.6 539.2 0C930.4 391 930.4 633 781.6 781.6z" p-id="2047" fill="#ffffff"></path><path d="M680.4 320 511.6 488.4 343.6 320.8 320 344.4 488 512 320 679.6 343.6 703.2 511.6 535.6 680.4 704 704 680.4 535.2 512 704 343.6Z" p-id="2048" fill="#ffffff"></path></svg>