<?xml version="1.0" standalone="no"?><!DOCTYPE svg PUBLIC "-//W3C//DTD SVG 1.1//EN" "http://www.w3.org/Graphics/SVG/1.1/DTD/svg11.dtd"><svg t="1512714836929" class="icon" style="" viewBox="0 0 1024 1024" version="1.1" xmlns="http://www.w3.org/2000/svg" p-id="8864" xmlns:xlink="http://www.w3.org/1999/xlink" width="32" height="32"><defs><style type="text/css"></style></defs><path d="M527.058824 54.211765l132.517647 271.058823c3.011765 6.023529 6.023529 9.035294 12.047058 9.035294l298.164706 42.164706c15.058824 3.011765 18.070588 18.070588 9.035294 27.105883l-216.847058 210.823529c-3.011765 3.011765-6.023529 9.035294-6.02353 15.058824l51.2 298.164705c3.011765 15.058824-12.047059 24.094118-24.094117 18.070589l-268.047059-141.552942c-6.023529-3.011765-12.047059-3.011765-15.058824 0l-268.047059 141.552942c-9.035294 9.035294-21.082353-3.011765-21.082353-15.058824L262.023529 632.470588c0-6.023529 0-12.047059-6.023529-15.058823l-216.847059-210.82353c-9.035294-9.035294-3.011765-27.105882 9.035294-27.105882l298.164706-42.164706c6.023529 0 9.035294-3.011765 12.047059-9.035294l132.517647-271.058824c12.047059-15.058824 30.117647-15.058824 36.141177-3.011764z" p-id="8865" fill="#dd163d"></path></svg>