<?xml version="1.0" standalone="no"?><!DOCTYPE svg PUBLIC "-//W3C//DTD SVG 1.1//EN" "http://www.w3.org/Graphics/SVG/1.1/DTD/svg11.dtd"><svg t="1512714823593" class="icon" style="" viewBox="0 0 1024 1024" version="1.1" xmlns="http://www.w3.org/2000/svg" p-id="8548" xmlns:xlink="http://www.w3.org/1999/xlink" width="32" height="32"><defs><style type="text/css"></style></defs><path d="M777.655917 940.250574c-2.781346 0-5.574972-0.596588-8.185426-1.808182L511.999488 818.902832 254.526439 938.443415c-6.398734 2.969635-13.907755 2.242064-19.615757-1.905396-5.709025-4.14746-8.721639-11.06194-7.873318-18.066471l34.126238-281.810341L67.912228 428.730505c-4.803399-5.167696-6.430456-12.533454-4.249791-19.244296 2.180666-6.710842 7.825222-11.713786 14.749936-13.071713l278.562367-54.629201L495.009536 93.737918c3.432169-6.16542 9.933233-9.988492 16.989953-9.988492s13.557784 3.823072 16.989953 9.988492l138.034796 248.047376 278.56339 54.629201c6.924713 1.357927 12.56927 6.360871 14.749936 13.071713 2.180666 6.710842 0.553609 14.075577-4.249791 19.244296L762.83435 636.660184l34.126238 281.810341c0.848321 7.005554-2.165316 13.920034-7.873318 18.066471C785.706267 938.993954 781.694907 940.250574 777.655917 940.250574zM120.179638 427.849438 295.792285 616.800881c3.897773 4.193509 5.748934 9.890254 5.060249 15.573697l-31.011294 256.085446 233.970776-108.628046c5.191232-2.410909 11.183713-2.408863 16.374946 0l233.969753 108.628046-31.011294-256.085446c-0.688685-5.683443 1.163499-11.380188 5.060249-15.573697l175.611623-188.951443-253.135254-49.64263c-5.617951-1.102101-10.464329-4.623297-13.247722-9.625218L511.999488 143.175887 386.563638 368.58159c-2.783393 5.002944-7.630794 8.524141-13.247722 9.625218L120.179638 427.849438z" p-id="8549" fill="#8a8a8a"></path></svg>