<?xml version="1.0" standalone="no"?><!DOCTYPE svg PUBLIC "-//W3C//DTD SVG 1.1//EN" "http://www.w3.org/Graphics/SVG/1.1/DTD/svg11.dtd"><svg t="1512192192298" class="icon" style="" viewBox="0 0 1024 1024" version="1.1" xmlns="http://www.w3.org/2000/svg" p-id="1145" xmlns:xlink="http://www.w3.org/1999/xlink" width="32" height="32"><defs><style type="text/css"></style></defs><path d="M730.352287 975.237048H999.649024A24.305976 24.305976 0 0 1 1023.999 999.619024c0 13.464987-10.69399 24.380976-24.349976 24.380976h-463.299548c-1.482999 0-2.934997-0.132-4.343996-0.384-6.637994 0.255-13.306987 0.384-20.00698 0.384C229.229776 1023.999 0 794.769224 0 511.9995S229.229776 0 511.9995 0s511.9995 229.230776 511.9995 511.9995c0 204.6668-120.088883 381.285628-293.646713 463.237548z m-218.352787 0c255.83875 0 463.236548-207.397797 463.236548-463.237548S767.83825 48.761952 511.9995 48.761952 48.761952 256.15975 48.761952 511.9995 256.16075 975.237048 511.9995 975.237048z m0-560.760453c-67.326934 0-121.905881-54.578947-121.905881-121.905881 0-67.325934 54.578947-121.904881 121.905881-121.904881 67.325934 0 121.904881 54.578947 121.904881 121.904881 0 67.326934-54.578947 121.905881-121.904881 121.905881z m0 438.856572c-67.326934 0-121.905881-54.578947-121.905881-121.904881S444.672566 609.523405 511.9995 609.523405c67.325934 0 121.904881 54.578947 121.904881 121.904881S579.325434 853.333167 511.9995 853.333167zM292.570714 633.904381c-67.326934 0-121.905881-54.578947-121.905881-121.905881 0-67.325934 54.578947-121.904881 121.905881-121.904881 67.325934 0 121.904881 54.578947 121.904881 121.904881 0 67.326934-54.578947 121.905881-121.904881 121.905881z m438.857572 0c-67.326934 0-121.905881-54.578947-121.905881-121.905881 0-67.325934 54.578947-121.904881 121.905881-121.904881 67.325934 0 121.904881 54.578947 121.904881 121.904881-0.001 67.326934-54.579947 121.905881-121.904881 121.905881z" fill="#797987" p-id="1146"></path><path d="M511.9995 365.713643c40.395961 0 73.142929-32.746968 73.142929-73.142929S552.395461 219.428786 511.9995 219.428786s-73.142929 32.746968-73.142929 73.142928 32.746968 73.141929 73.142929 73.141929z m0 438.856571c40.395961 0 73.142929-32.746968 73.142929-73.142928S552.395461 658.285357 511.9995 658.285357s-73.142929 32.746968-73.142929 73.142929 32.746968 73.141929 73.142929 73.141928zM292.570714 585.142429c40.395961 0 73.142929-32.746968 73.142929-73.142929s-32.746968-73.142929-73.142929-73.142929-73.141929 32.746968-73.141928 73.142929 32.746968 73.142929 73.141928 73.142929z m438.857572 0c40.395961 0 73.142929-32.746968 73.142928-73.142929s-32.746968-73.142929-73.142928-73.142929-73.142929 32.746968-73.142929 73.142929 32.746968 73.142929 73.142929 73.142929z" fill="#E5E5E7" p-id="1147"></path></svg>