<?xml version="1.0" standalone="no"?><!DOCTYPE svg PUBLIC "-//W3C//DTD SVG 1.1//EN" "http://www.w3.org/Graphics/SVG/1.1/DTD/svg11.dtd"><svg t="1512192243383" class="icon" style="" viewBox="0 0 1024 1024" version="1.1" xmlns="http://www.w3.org/2000/svg" p-id="1278" xmlns:xlink="http://www.w3.org/1999/xlink" width="32" height="32"><defs><style type="text/css"></style></defs><path d="M744.727 232.727v-93.025c0-51.314-41.722-93.156-93.19-93.156H93.19C41.635 46.545 0 88.253 0 139.702v395.506c0 51.312 41.66 93.156 93.05 93.156h93.05l0.081 0.082v162.901c0 51.263 41.766 93.018 93.285 93.018h139.36l93.172 93.091 93.092-93.091h325.94c51.271 0 92.97-41.646 92.97-93.018V325.744c0-51.263-41.576-93.018-92.862-93.018H744.727v0.001z" fill="#797987" p-id="1279"></path><path d="M698.182 232.727v-93.025c0-25.661-20.937-46.612-46.645-46.612H93.19c-25.815 0-46.644 20.836-46.644 46.612v395.506c0 25.675 20.889 46.61 46.505 46.61h93.131V325.744c0-51.372 41.547-93.018 92.862-93.018h419.138v0.001z" fill="#E5E5E7" p-id="1280"></path><path d="M585.811 837.818H931.03c25.592 0 46.425-20.832 46.425-46.472V325.744c0-25.621-20.8-46.472-46.317-46.472H279.044c-25.579 0-46.317 20.778-46.317 46.472v465.602c0 25.573 20.943 46.472 46.741 46.472h158.629l73.889 73.825 73.825-73.825zM372.363 442.181c0-12.853 10.597-23.273 23.082-23.273h419.29c12.748 0 23.082 10.33 23.082 23.273 0 12.854-10.597 23.273-23.082 23.273h-419.29c-12.748 0.001-23.082-10.33-23.082-23.273z m0 116.364c0-12.852 10.607-23.272 23.331-23.272h232.612c12.885 0 23.33 10.33 23.33 23.272 0 12.853-10.606 23.273-23.33 23.273H395.694c-12.885-0.001-23.331-10.33-23.331-23.273z m0 116.364c0-12.854 10.582-23.273 23.272-23.273h349.093c12.853 0 23.272 10.33 23.272 23.273 0 12.853-10.583 23.272-23.272 23.272H395.635c-12.852 0-23.272-10.329-23.272-23.272z" fill="#FFFFFF" p-id="1281"></path></svg>