<?xml version="1.0" standalone="no"?><!DOCTYPE svg PUBLIC "-//W3C//DTD SVG 1.1//EN" "http://www.w3.org/Graphics/SVG/1.1/DTD/svg11.dtd"><svg t="1512191073013" class="icon" style="" viewBox="0 0 1024 1024" version="1.1" xmlns="http://www.w3.org/2000/svg" p-id="893" xmlns:xlink="http://www.w3.org/1999/xlink" width="32" height="32"><defs><style type="text/css"></style></defs><path d="M645.027 683.69l110.721 110.721c9.555 9.556 9.65 24.954 0.062 34.542-9.521 9.521-25.059 9.421-34.542-0.062L613.266 720.889c-39.239 36.779-92.004 59.301-150.028 59.301-121.187 0-219.429-98.242-219.429-219.429s98.242-219.429 219.429-219.429 219.429 98.242 219.429 219.429c0 45.551-13.88 87.86-37.64 122.929zM243.81 195.048h731.429V146.16c0-26.919-21.815-48.636-48.96-48.636H97.722c-27.121 0-48.96 21.778-48.96 48.636v48.888h146.286V97.524h48.762v97.524zM48.762 243.81v634.03c0 26.919 21.815 48.636 48.96 48.636h828.557c27.121 0 48.96-21.778 48.96-48.636V243.81H48.762zM0 146.16c0-53.791 43.672-97.398 97.722-97.398h828.557c53.97 0 97.722 43.443 97.722 97.398v731.68c0 53.792-43.672 97.398-97.722 97.398H97.722C43.751 975.238 0 931.795 0 877.84V146.16z" fill="#797987" p-id="894"></path><path d="M463.238 731.429c94.257 0 170.667-76.41 170.667-170.667s-76.41-170.667-170.667-170.667-170.667 76.41-170.667 170.667 76.411 170.667 170.667 170.667z" fill="#E5E5E7" p-id="895"></path></svg>