<?xml version="1.0" standalone="no"?><!DOCTYPE svg PUBLIC "-//W3C//DTD SVG 1.1//EN" "http://www.w3.org/Graphics/SVG/1.1/DTD/svg11.dtd"><svg t="1512191056311" class="icon" style="" viewBox="0 0 1024 1024" version="1.1" xmlns="http://www.w3.org/2000/svg" p-id="765" xmlns:xlink="http://www.w3.org/1999/xlink" width="32" height="32"><defs><style type="text/css"></style></defs><path d="M69.818 93.133C69.818 41.697 111.524 0 162.914 0h605.081c51.415 0 93.095 41.731 93.095 93.133V977.34c0 25.77-20.758 46.66-46.543 46.66H209.46c-77.122 0-139.642-62.515-139.642-139.702V93.133z m46.546 0v791.166c0 51.473 41.672 93.155 93.097 93.155h605.086c0.013 0-0.001-884.321-0.001-884.321 0-25.714-20.859-46.587-46.55-46.587H162.914c-25.691-0.001-46.55 20.864-46.55 46.587z m116.363 581.776c0-12.852 10.356-23.272 23.119-23.272h372.671c12.768 0 23.119 10.33 23.119 23.272 0 12.853-10.354 23.273-23.119 23.273H255.846c-12.768-0.001-23.119-10.33-23.119-23.273z m0-116.364c0-12.853 10.356-23.273 23.119-23.273h372.671c12.768 0 23.119 10.33 23.119 23.273 0 12.854-10.354 23.273-23.119 23.273H255.846c-12.768 0-23.119-10.33-23.119-23.273z m0-116.363c0-12.854 10.607-23.273 23.331-23.273H488.67c12.885 0 23.33 10.33 23.33 23.273 0 12.853-10.606 23.272-23.33 23.272H256.058c-12.886 0-23.331-10.329-23.331-23.272z" fill="#797987" p-id="766"></path><path d="M216.85 1024v-42.68c24.24-25.116 39.15-59.295 39.15-96.957 0-7.93-0.661-15.705-1.931-23.273H952.25a140.546 140.546 0 0 1 1.931 23.273c0 73.2-56.326 133.245-128.001 139.636H216.85v0.001z" fill="#797987" p-id="767"></path><path d="M823.905 977.454c39.415-4.296 71.237-32.766 80.789-69.818H301.098a185.358 185.358 0 0 1-23.463 69.818h546.27z" fill="#E5E5E7" p-id="768"></path><path d="M372.363 0h279.273v232.728l-139.637-46.546-139.636 46.546V0z" fill="#797987" p-id="769"></path><path d="M605.091 46.545H418.909v121.604l93.09-31.03 93.092 31.03V46.545z" fill="#E5E5E7" p-id="770"></path></svg>