<?xml version="1.0" standalone="no"?><!DOCTYPE svg PUBLIC "-//W3C//DTD SVG 1.1//EN" "http://www.w3.org/Graphics/SVG/1.1/DTD/svg11.dtd"><svg t="1512192182052" class="icon" style="" viewBox="0 0 1024 1024" version="1.1" xmlns="http://www.w3.org/2000/svg" p-id="1018" xmlns:xlink="http://www.w3.org/1999/xlink" width="32" height="32"><defs><style type="text/css"></style></defs><path d="M1019.84 661.039a516.69 516.69 0 0 0 4.16-65.554c0-282.77-229.23-512-512-512s-512 229.23-512 512c0 22.049 1.395 43.93 4.16 65.554l8.005 62.61s7.224-19.918 30.005-57.74c31.652-47.304 81.096-70.424 135.916-70.424 64.063 0 121.823 44.337 148.257 94.424 26.435 50.087 18.087 33.043 18.087 33.043s10.783-14.609 21.913-31.652c20.239-38.419 79.916-94.251 143.006-95.784 0.882-0.021 1.766-0.032 2.649-0.032 75.214 0 122.518 62.424 144.508 97.396l21.858 29.724s3.319-5.187 23.04-29.724c19.722-24.537 61.113-97.396 144.508-97.396 54.82 0 104.698 28.516 132.879 74.384l33.043 53.781 8.006-62.61z" fill="#797987" p-id="1019"></path><path d="M979.512 601.92c-36.016-32.212-83.164-50.957-133.528-50.957-68.492 0-130.54 34.692-166.966 89.546l-1.03-1.565c-36.561-53.949-98.078-87.982-165.917-87.982-68.492 0-130.54 34.692-166.966 89.546 1.371-2.025 0 0-1.356-2.044-36.6-53.671-97.953-87.502-165.591-87.502-50.361 0-97.507 18.743-133.523 50.952-0.48-3.235 0.15-1.42-0.042-6.431 0-258.181 209.297-467.478 467.478-467.478s467.478 209.297 467.478 467.478c0 1.644-0.008 3.287-0.025 4.928l-0.012 1.509z" fill="#FFFFFF" p-id="1020"></path><path d="M350.669 632.563c56.279-72.904 203.327-142.238 323.714 1.252 4.121-68.836 32.502-301.458-165.168-511.647-20.608 25.295-196.489 231.522-158.546 510.395z" fill="#E5E5E7" p-id="1021"></path><path d="M491.76 902.095c0 53.861 43.663 97.524 97.524 97.524 53.861 0 97.524-43.663 97.524-97.524h-48.762c0 26.93-21.831 48.762-48.762 48.762s-48.762-21.831-48.762-48.762v-316.77c0-13.618-10.916-24.563-24.381-24.563-13.559 0-24.381 10.998-24.381 24.563V902.095z m0-819.1V48.757c0-13.463 10.822-24.376 24.381-24.376 13.465 0 24.381 10.818 24.381 24.376v42.838a683.42 683.42 0 0 1 13.945 15.185c107.498 120.641 172.82 279.683 172.82 453.982a691.86 691.86 0 0 1-2.17 54.835 687.26 687.26 0 0 1-2.102 21.973l-43.685 6.661-5.333-6.857c0.759-6.783 1.97-18.817 2.512-25.64a643.328 643.328 0 0 0 2.017-50.971c0-154.946-55.739-301.101-155.187-415.545-5.671-9.457-11.339-17.21-11.339-17.21s-2.575 5.366-8.96 14.488C402.102 257.34 345.474 404.586 345.474 560.763c0 17.086 0.675 34.085 2.017 50.971 0.542 6.823 2.697 16.19 3.457 22.973l-2.667 8.762-47.296-5.899a684.103 684.103 0 0 1-2.102-21.973 691.86 691.86 0 0 1-2.17-54.835c0-174.299 65.322-333.342 172.82-453.982a686.086 686.086 0 0 1 22.227-23.785z" fill="#797987" p-id="1022"></path></svg>