<?xml version="1.0" standalone="no"?><!DOCTYPE svg PUBLIC "-//W3C//DTD SVG 1.1//EN" "http://www.w3.org/Graphics/SVG/1.1/DTD/svg11.dtd"><svg t="1512917911508" class="icon" style="" viewBox="0 0 1024 1024" version="1.1" xmlns="http://www.w3.org/2000/svg" p-id="2677" xmlns:xlink="http://www.w3.org/1999/xlink" width="32" height="32"><defs><style type="text/css"></style></defs><path d="M659.654 662.284c-20.862-20.18-61.686-54.013-100.27-54.04-12.889 0-24.794 3.714-34.597 10.786l-24.604 17.804c-38.529-8.192-78.042-41.779-106.141-90.467-28.153-48.688-37.492-99.669-25.368-137.134l27.717-12.452c35.334-15.892 46.803-61.549 32.413-128.669C417.198 214.1 377.795 112 311.412 112a61.372 61.372 0 0 0-18.951 3.004l-46.94 15.182c-40.222 13.053-70.506 46.804-79.053 88.146-25.177 121.296 6.39 270.527 86.59 409.436 80.254 138.882 193.795 240.818 311.378 279.593 11.96 3.905 24.357 5.926 36.918 5.926 29.219 0 57.29-10.759 78.944-30.31l36.591-33.041c12.998-11.715 31.922-38.884 12.561-89.238-11.687-30.42-38.393-68.131-69.796-98.414z m30.556 158.078l-36.591 33.041c-14.336 12.943-32.959 20.07-52.265 20.07a77.326 77.326 0 0 1-24.412-3.932C468.426 833.77 362.94 738.388 287.519 607.834c-75.366-130.525-105.322-269.571-82.057-381.419 5.68-27.361 25.696-49.726 52.32-58.354l46.913-15.238c2.239-0.682 4.451-1.037 6.717-1.037 30.966 0 65.591 64.444 78.507 124.682 9.475 44.1 5.571 77.059-9.776 84.023l-42.134 18.896-1.065 2.212c-23.402 49.206-14.746 119.985 22.61 184.675 37.383 64.744 94.344 107.588 148.685 111.902l2.457 0.192 37.41-27.061c3.004-2.185 6.663-3.25 11.278-3.25 37.001 0.027 111.521 71.161 132.902 126.867 5.707 14.746 9.967 34.625-2.076 45.438zM825.542 321.278c-43.772-86.261-118.511-150.296-210.507-180.333a19.626 19.626 0 0 0-6.171-1.01 19.827 19.827 0 0 0-18.896 13.735c-3.386 10.404 2.321 21.654 12.752 25.067 81.865 26.734 148.412 83.75 187.324 160.509 39.021 76.786 45.738 164.14 19.005 246.006-3.413 10.431 2.321 21.681 12.78 25.067a19.172 19.172 0 0 0 6.143 1.011c8.629 0 16.275-5.516 18.951-13.736 30.01-91.941 22.392-190.054-21.381-276.316z" p-id="2678" fill="#bfbfbf"></path><path d="M577.762 255.223c-1.994-0.628-4.069-0.983-6.199-0.983-8.629 0-16.275 5.516-18.896 13.736-3.414 10.404 2.321 21.681 12.725 25.067 51.282 16.712 92.952 52.484 117.418 100.707 24.467 48.224 28.782 102.974 11.961 154.201-3.386 10.431 2.348 21.681 12.779 25.122a20.83 20.83 0 0 0 6.199 0.956c8.629 0 16.247-5.516 18.896-13.708 20.016-61.358 14.937-126.894-14.336-184.566-29.327-57.699-79.244-100.488-140.547-120.532zM528.063 407.294c42.981 14.063 66.465 60.403 52.429 103.356-3.386 10.404 2.349 21.654 12.78 25.095 1.993 0.628 4.068 0.983 6.144 0.983a19.905 19.905 0 0 0 18.951-13.735c20.862-63.789-14.145-132.656-77.934-153.518a19.634 19.634 0 0 0-6.198-1.011c-8.629 0-16.22 5.516-18.924 13.708-3.386 10.486 2.321 21.736 12.752 25.122z" p-id="2679" fill="#bfbfbf"></path></svg>