<?xml version="1.0" standalone="no"?><!DOCTYPE svg PUBLIC "-//W3C//DTD SVG 1.1//EN" "http://www.w3.org/Graphics/SVG/1.1/DTD/svg11.dtd"><svg t="1512917876665" class="icon" style="" viewBox="0 0 1024 1024" version="1.1" xmlns="http://www.w3.org/2000/svg" p-id="1894" xmlns:xlink="http://www.w3.org/1999/xlink" width="32" height="32"><defs><style type="text/css"></style></defs><path d="M512.064 64c112.704 0 215.232 44.224 289.152 115.136 138.368 133.696 158.4 345.6 48.448 500.352-44.16 62.784-107.904 112.896-182.016 142.208l-130.24 127.616c-13.952 14.144-36.544 14.144-50.496 0.448L486.4 949.312l-0.256-0.256-129.984-127.36c-74.112-29.312-137.344-79.424-182.016-142.208-109.696-154.752-89.6-366.656 48.768-500.352C296.768 108.224 399.04 64 512.064 64L512.064 64 512.064 64zM512.064 259.072 512.064 259.072c56.832 0 107.84 21.504 144.96 57.216 37.056 36.16 60.16 85.312 60.16 140.032 0 54.464-23.104 104.128-60.16 139.84-37.056 35.648-88.064 57.664-144.96 57.664-56.896 0-108.16-22.016-145.216-57.664C329.792 560.448 306.944 510.784 306.944 456.32c0-54.784 22.848-103.872 59.904-140.032C403.904 280.576 455.168 259.072 512.064 259.072L512.064 259.072 512.064 259.072zM626.752 345.6 626.752 345.6c-29.44-27.84-70.08-45.44-114.752-45.44-44.928 0-85.312 17.6-114.752 45.44-29.44 28.608-47.744 67.712-47.744 110.72 0 43.264 18.24 82.112 47.744 110.464C426.752 595.136 467.072 612.48 512.064 612.48c44.672 0 85.312-17.344 114.752-45.696 29.184-28.352 47.488-67.2 47.488-110.464C674.24 413.312 655.936 374.144 626.752 345.6L626.752 345.6 626.752 345.6zM775.488 206.208 775.488 206.208C708.416 141.376 615.552 101.44 512.64 101.44c-102.592 0-195.712 40-262.592 104.832-125.568 121.536-144 315.264-44.48 456.512 41.664 58.88 101.248 105.088 170.88 131.584 5.312 1.856 10.88 5.12 14.784 8.896l121.344 119.68 121.344-119.68 0 1.088c3.648-4.288 8.384-7.552 13.44-9.472 70.208-26.176 130.048-72.96 171.968-132.096C919.232 521.472 900.736 327.744 775.488 206.208L775.488 206.208 775.488 206.208zM775.488 206.208" p-id="1895" fill="#bfbfbf"></path></svg>