<svg xmlns="http://www.w3.org/2000/svg" width="283.46" height="283.46" viewBox="0 0 283.46 283.46"><path fill="#ffc42d" d="M131.712 19.678c5.51-11.688 14.527-11.688 20.037 0l23.866 50.613c5.51 11.687 20.514 22.847 33.334 24.796l51.554 7.838c12.82 1.95 15.9 11.105 6.845 20.346l-38.112 38.876c-9.062 9.243-14.76 27.23-12.674 39.97l9.18 56c2.087 12.744-5.49 18.06-16.84 11.81l-46.535-25.605c-11.353-6.244-29.927-6.244-41.28 0l-46.534 25.607c-11.35 6.247-18.932.933-16.842-11.81l9.175-56c2.09-12.743-3.615-30.73-12.67-39.97L16.114 123.27c-9.058-9.24-5.98-18.397 6.843-20.346l51.552-7.838c12.824-1.95 27.822-13.107 33.334-24.795l23.868-50.612zm0 0"/></svg>