<?xml version="1.0" standalone="no"?><!DOCTYPE svg PUBLIC "-//W3C//DTD SVG 1.1//EN" "http://www.w3.org/Graphics/SVG/1.1/DTD/svg11.dtd"><svg t="1512031030947" class="icon" style="" viewBox="0 0 6943 1024" version="1.1" xmlns="http://www.w3.org/2000/svg" p-id="9417" xmlns:xlink="http://www.w3.org/1999/xlink" width="216.96875" height="32"><defs><style type="text/css"></style></defs><path d="M973.332513 373.646222c-102.172444-19.057778-260.494222-49.664-260.494222-49.664s-80.327111-152.177778-135.224889-249.173333C537.848068 2.844444 533.467624 0.227556 515.20629 0.227556c-18.204444 0-26.680889 7.168-61.326222 74.581333C398.413401 171.861333 317.119179 323.754667 317.119179 323.754667S156.920068 360.732444 53.496068 379.790222C2.921846 388.039111-13.746599 432.184889 11.91029 463.473778c72.647111 85.560889 193.763556 226.872889 193.763556 226.872889s-27.192889 155.363556-39.025778 261.632c-3.868444 40.903111 38.001778 70.712889 68.778667 70.712889 10.012444 0 20.764444-2.389333 32.085333-7.736889 86.755556-42.211556 218.680889-106.496 248.433778-121.116444 29.297778 14.620444 159.914667 80.213333 245.646222 122.424889C772.628513 1021.610667 783.437401 1024 793.449846 1024c30.264889 0 69.290667-29.752889 65.706667-70.656-11.832889-106.268444-30.037333-261.916444-30.037333-261.916444s113.436444-135.168 185.287111-221.013333C1039.835624 439.352889 1023.394735 381.952 973.332513 373.646222zM2452.443624 373.646222c-102.172444-19.057778-260.494222-49.664-260.494222-49.664s-80.327111-152.177778-135.281778-249.173333c-39.765333-71.964444-44.145778-74.581333-62.350222-74.581333-18.261333 0-26.680889 7.168-61.326222 74.581333-55.466667 96.995556-136.817778 248.888889-136.817778 248.888889s-160.142222 36.977778-263.566222 56.035556c-50.574222 8.248889-67.242667 52.394667-41.585778 83.683556 72.647111 85.560889 193.763556 226.872889 193.763556 226.872889s-27.192889 155.363556-39.025778 261.632c-3.868444 40.903111 38.001778 70.712889 68.778667 70.712889 10.012444 0 20.821333-2.389333 32.085333-7.736889 86.755556-42.211556 218.680889-106.496 248.433778-121.116444 29.240889 14.620444 159.914667 80.213333 245.646222 122.424889C2251.739624 1021.610667 2262.548513 1024 2272.560957 1024c30.264889 0 69.290667-29.752889 65.706667-70.656-11.832889-106.268444-30.037333-261.916444-30.037333-261.916444s113.436444-135.168 185.287111-221.013333C2518.946735 439.352889 2502.505846 381.952 2452.443624 373.646222zM3931.554735 373.646222c-102.172444-19.057778-260.494222-49.664-260.494222-49.664s-80.327111-152.177778-135.224889-249.173333c-39.765333-71.964444-44.145778-74.581333-62.350222-74.581333-18.204444 0-26.680889 7.168-61.326222 74.581333-55.466667 96.995556-136.817778 248.888889-136.817778 248.888889s-160.142222 36.977778-263.566222 56.035556c-50.574222 8.248889-67.242667 52.394667-41.585778 83.683556 72.647111 85.560889 193.763556 226.872889 193.763556 226.872889s-27.192889 155.363556-39.025778 261.632c-3.868444 40.903111 38.001778 70.712889 68.778667 70.712889 10.012444 0 20.821333-2.389333 32.085333-7.736889 86.755556-42.211556 218.680889-106.496 248.433778-121.116444 29.297778 14.620444 159.914667 80.213333 245.646222 122.424889C3730.850735 1021.610667 3741.659624 1024 3751.672068 1024c30.264889 0 69.290667-29.752889 65.706667-70.656-11.832889-106.268444-30.037333-261.916444-30.037333-261.916444s113.436444-135.168 185.287111-221.013333C3998.057846 439.352889 3981.616957 381.952 3931.554735 373.646222zM5410.665846 373.646222c-102.172444-19.057778-260.494222-49.664-260.494222-49.664s-80.327111-152.177778-135.281778-249.173333c-39.765333-71.964444-44.145778-74.581333-62.350222-74.581333-18.261333 0-26.680889 7.168-61.326222 74.581333-55.466667 96.995556-136.760889 248.888889-136.760889 248.888889s-160.142222 36.977778-263.566222 56.035556c-50.574222 8.248889-67.242667 52.394667-41.585778 83.683556 72.647111 85.560889 193.763556 226.872889 193.763556 226.872889s-27.192889 155.363556-39.025778 261.632c-3.811556 40.903111 38.001778 70.712889 68.778667 70.712889 10.012444 0 20.764444-2.389333 32.085333-7.736889 86.755556-42.211556 218.680889-106.496 248.433778-121.116444 29.240889 14.620444 159.914667 80.213333 245.646222 122.424889C5209.961846 1021.610667 5220.770735 1024 5230.783179 1024c30.264889 0 69.290667-29.752889 65.706667-70.656-11.832889-106.268444-30.037333-261.916444-30.037333-261.916444s113.436444-135.168 185.287111-221.013333C5477.168957 439.352889 5460.728068 381.952 5410.665846 373.646222zM6889.776957 373.646222c-102.172444-19.057778-260.494222-49.664-260.494222-49.664s-80.327111-152.177778-135.281778-249.173333c-39.765333-71.964444-44.145778-74.581333-62.350222-74.581333-18.204444 0-26.680889 7.168-61.326222 74.581333-55.466667 96.995556-136.817778 248.888889-136.817778 248.888889s-160.142222 36.977778-263.566222 56.035556c-50.574222 8.248889-67.242667 52.394667-41.585778 83.683556 72.647111 85.560889 193.763556 226.872889 193.763556 226.872889s-27.192889 155.363556-39.025778 261.632c-3.868444 40.903111 37.944889 70.712889 68.778667 70.712889 10.012444 0 20.821333-2.389333 32.085333-7.736889 86.755556-42.211556 218.680889-106.496 248.433778-121.116444 29.240889 14.620444 159.914667 80.213333 245.589333 122.424889 11.036444 5.347556 21.845333 7.736889 31.857778 7.736889 30.264889 0 69.290667-29.752889 65.706667-70.656-11.832889-106.268444-30.037333-261.916444-30.037333-261.916444s113.436444-135.168 185.287111-221.013333C6956.280068 439.352889 6939.839179 381.952 6889.776957 373.646222z" fill="#e6e6e6" p-id="9418"></path></svg>