<?xml version="1.0" standalone="no"?><!DOCTYPE svg PUBLIC "-//W3C//DTD SVG 1.1//EN" "http://www.w3.org/Graphics/SVG/1.1/DTD/svg11.dtd"><svg t="1512397293160" class="icon" style="" viewBox="0 0 1024 1024" version="1.1" xmlns="http://www.w3.org/2000/svg" p-id="6389" xmlns:xlink="http://www.w3.org/1999/xlink" width="32" height="32"><defs><style type="text/css"></style></defs><path d="M942.523337 538.989701c-6.131651 98.857519-45.718251 188.401927-107.251699 258.113639l1.165546 1.165546-38.168298 38.168298-1.171686-1.168616c-69.711711 61.506842-159.25305 101.076046-258.107499 107.202581l0 1.363044-53.979402 0 0-1.363044c-98.855472-6.126534-188.395788-45.696762-258.107499-107.205651l-1.171686 1.171686-38.169321-38.168298 1.165546-1.165546C127.19696 727.391628 87.608314 637.84722 81.476663 538.989701l-1.311879 0 0-53.979402L81.476663 485.010299c6.131651-98.855472 45.718251-188.401927 107.251699-258.113639l-1.165546-1.165546 38.169321-38.169321 1.168616 1.171686c69.714781-61.509912 159.255097-101.079116 258.110569-107.205651l0-1.363044 26.954909 0c0.011256 0 0.021489 0 0.034792 0 0.011256 0 0.024559 0 0.034792 0l26.954909 0 0 1.363044c98.855472 6.126534 188.395788 45.696762 258.110569 107.202581l1.168616-1.168616 38.168298 38.169321-1.165546 1.165546c61.533448 69.711711 101.120049 159.255097 107.251699 258.113639l1.311879 0 0 53.979402L942.523337 538.989701zM888.552122 538.989701 780.515546 538.989701c-5.389754 54.249555-27.532053 103.167684-60.216453 143.140071l76.893274 76.893274C849.080132 699.179077 882.598526 622.976534 888.552122 538.989701zM538.989701 888.49277c83.978646-5.951549 160.181189-39.448454 220.028229-91.306542l-76.885088-76.885088c-39.966247 32.695656-88.887446 54.846142-143.142118 60.232826L538.990724 888.49277zM485.010299 888.49277l0-107.958804c-54.254671-5.386684-103.175871-27.53717-143.142118-60.232826l-76.885088 76.885088C324.82911 849.044316 401.031653 882.541221 485.010299 888.49277zM226.810702 759.023046l76.891228-76.893274c-32.6844-39.969317-54.826699-88.890516-60.216453-143.140071L135.450948 538.989701C141.401474 622.973464 174.919868 699.179077 226.810702 759.023046zM226.807632 264.979c-51.887764 59.841923-85.406159 136.046512-91.359754 220.031299l108.036575 0c5.389754-54.249555 27.528983-103.167684 60.216453-143.140071L226.807632 264.979zM485.010299 135.50723c-83.978646 5.951549-160.181189 39.448454-220.028229 91.306542l76.885088 76.885088c39.966247-32.695656 88.887446-54.843072 143.142118-60.232826L485.009276 135.50723zM512 296.082392c-119.240755 0-215.904305 96.658434-215.917608 215.896118l0 0.040932c0.013303 119.227452 96.658434 215.876676 215.882815 215.899188l0.070608 0c59.614749-0.011256 113.583918-24.179702 152.648632-63.250556l0.008186-0.008186c39.064714-39.072901 63.225997-93.044116 63.225997-152.658865C727.917608 392.751059 631.248941 296.082392 512 296.082392zM538.989701 135.50723l0 107.958804c54.254671 5.389754 103.175871 27.53717 143.142118 60.232826l76.885088-76.885088C699.17089 174.955684 622.968347 141.458779 538.989701 135.50723zM797.192368 264.976954l-76.893274 76.893274c32.68747 39.971363 54.826699 88.890516 60.216453 143.140071l108.036575 0C882.598526 401.026536 849.080132 324.820923 797.192368 264.976954z" p-id="6390" fill="#888"></path></svg>