<?xml version="1.0" standalone="no"?><!DOCTYPE svg PUBLIC "-//W3C//DTD SVG 1.1//EN" "http://www.w3.org/Graphics/SVG/1.1/DTD/svg11.dtd"><svg t="1512395559076" class="icon" style="" viewBox="0 0 1024 1024" version="1.1" xmlns="http://www.w3.org/2000/svg" p-id="3607" xmlns:xlink="http://www.w3.org/1999/xlink" width="32" height="32"><defs><style type="text/css"></style></defs><path d="M619.497 490.667h-55.675l67.606-72.909c5.302-6.627 5.302-15.907 0-22.535l-11.93-13.257c-2.652-2.652-6.627-5.302-10.605-5.302-3.977 0-7.954 1.326-10.605 5.302l-80.862 87.49-80.862-87.49c-2.652-2.652-6.627-5.302-10.605-5.302-3.977 0-7.954 1.326-10.605 5.302l-11.93 13.257c-5.302 6.627-5.302 15.907 0 22.535l67.606 72.909h-57.001c-9.28 0-15.907 6.627-15.907 15.907v18.558c0 9.28 6.627 15.907 15.907 15.907h78.211v25.187h-78.211c-9.28 0-15.907 6.627-15.907 15.907v18.558c0 9.28 6.627 15.907 15.907 15.907h78.211v59.652c0 9.28 6.627 15.907 15.907 15.907h18.558c9.28 0 15.907-6.627 15.907-15.907v-59.652h78.211c9.28 0 15.907-6.627 15.907-15.907v-18.558c0-9.28-6.627-15.907-15.907-15.907h-78.211v-25.187h78.211c9.28 0 15.907-6.627 15.907-15.907v-18.558c0-9.28-7.954-15.907-17.233-15.907z m221.377-26.511c21.21-14.581 22.535-26.511 22.535-43.745V306.409c0-34.465-27.838-63.629-63.629-63.629H231.095c-34.465 0-63.629 27.838-63.629 63.629v114.002c0 18.558 1.326 33.14 22.535 43.745 15.907 7.954 53.025 29.164 53.025 70.257 0 46.397-27.838 60.978-51.698 68.932h-1.326c-21.21 13.257-22.535 34.465-22.535 43.745v114.002c0 34.465 27.838 63.629 63.629 63.629h568.685c34.465 0 63.629-27.838 63.629-63.629V647.09c0-22.535-5.302-31.814-22.535-43.745-39.769-21.21-53.025-38.444-53.025-70.257 0-30.489 11.93-46.397 53.025-68.932z m-104.723 70.256c0 49.047 30.489 92.793 75.559 111.35v96.769c0 17.233-14.581 31.814-31.814 31.814H249.653c-17.233 0-31.814-14.581-31.814-31.814v-96.769c45.071-18.558 75.559-62.304 75.559-111.35s-30.489-92.793-75.559-111.35v-96.769c0-17.233 14.581-31.814 31.814-31.814h530.243c17.233 0 31.814 14.581 31.814 31.814v96.769c-45.071 18.558-75.559 62.304-75.559 111.35z" p-id="3608" fill="#888"></path></svg>