<?xml version="1.0" standalone="no"?><!DOCTYPE svg PUBLIC "-//W3C//DTD SVG 1.1//EN" "http://www.w3.org/Graphics/SVG/1.1/DTD/svg11.dtd"><svg t="1512397445293" class="icon" style="" viewBox="0 0 1024 1024" version="1.1" xmlns="http://www.w3.org/2000/svg" p-id="13303" xmlns:xlink="http://www.w3.org/1999/xlink" width="32" height="32"><defs><style type="text/css"></style></defs><path d="M370.301461 784.997743 268.497446 784.997743C186.519064 784.997743 119.987647 718.466326 119.987647 636.366314L119.987647 250.678703c0-82.100012 66.531417-148.631429 148.874688-148.631429l486.27533 0c82.221642 0 148.874688 66.531417 148.874688 148.631429l0 385.687611c0 82.221642-66.409787 148.631429-148.874688 148.631429L628.034683 784.997743c-6.81126 0-13.257632 2.797482-18.001188 7.662668L476.605773 931.683098c-9.487112 9.973631-9.243853 25.663856 0.729778 35.272598 9.973631 9.487112 25.663856 9.243853 35.272598-0.729778l133.427723-139.022687-18.001188 7.662668 127.224611 0c109.953201 0 198.621214-88.789642 198.621214-198.499584L953.880508 250.678703c0-109.588312-88.911272-198.499584-198.742844-198.499584L268.862335 52.179119C159.030764 52.179119 70.119492 140.968761 70.119492 250.678703l0 385.687611c0 109.588312 88.789642 198.499584 198.377955 198.499584l101.682385 0c13.74415 0 24.934078-11.189928 24.934078-24.934078C395.113909 796.187671 384.045611 784.997743 370.301461 784.997743L370.301461 784.997743 370.301461 784.997743zM370.301461 784.997743" p-id="13304" fill="#888"></path><path d="M286.133745 375.95724l382.281981 0c13.74415 0 24.934078-11.189928 24.934078-24.934078 0-13.74415-11.189928-24.934078-24.934078-24.934078L286.133745 326.089084c-13.74415 0-24.934078 11.189928-24.934078 24.934078C261.199667 364.888942 272.389595 375.95724 286.133745 375.95724L286.133745 375.95724 286.133745 375.95724zM286.133745 375.95724" p-id="13305" fill="#888"></path><path d="M286.133745 531.643188 737.866255 531.643188c13.74415 0 24.934078-11.189928 24.934078-24.934078 0-13.74415-11.189928-24.934078-24.934078-24.934078L286.133745 481.775033c-13.74415 0-24.934078 11.189928-24.934078 24.934078C261.199667 520.57489 272.389595 531.643188 286.133745 531.643188L286.133745 531.643188 286.133745 531.643188zM286.133745 531.643188" p-id="13306" fill="#888"></path></svg>