<?xml version="1.0" standalone="no"?><!DOCTYPE svg PUBLIC "-//W3C//DTD SVG 1.1//EN" "http://www.w3.org/Graphics/SVG/1.1/DTD/svg11.dtd"><svg t="1512395500961" class="icon" style="" viewBox="0 0 1024 1024" version="1.1" xmlns="http://www.w3.org/2000/svg" p-id="2866" xmlns:xlink="http://www.w3.org/1999/xlink" width="32" height="32"><defs><style type="text/css"></style></defs><path d="M839.067 898.533 184.933 898.533C119.249 898.533 66 845.284 66 779.6L66 363.333l0-59.467L66 244.4c0-65.684 53.249-118.933 118.933-118.933l654.133 0C904.751 125.467 958 178.716 958 244.4l0 59.467 0 59.467L958 779.6C958 845.284 904.751 898.533 839.067 898.533zM898.533 274.133c0-49.265-39.935-89.2-89.2-89.2L214.667 184.933c-49.265 0-89.2 39.935-89.2 89.2l0 29.733 773.067 0L898.534 274.133zM898.533 363.333 125.467 363.333l0 386.533c0 49.265 39.935 89.2 89.2 89.2l594.667 0c49.265 0 89.2-39.935 89.2-89.2L898.534 363.333zM645.8 660.667c-5.093 0-9.97-0.791-14.867-1.499l0 90.699-59.467 0L571.466 452.533l59.467 0 0 1.499c4.897-0.708 9.773-1.499 14.867-1.499 57.475 0 104.067 46.592 104.067 104.067S703.275 660.667 645.8 660.667zM645.8 512c-5.275 0-10.172 1.32-14.867 3l0 83.2c4.695 1.68 9.592 3 14.867 3 24.631 0 44.6-19.969 44.6-44.6C690.4 531.969 670.431 512 645.8 512zM482.267 452.533l59.467 0L541.734 556.6l0 104.067 0 89.2-59.467 0L482.267 452.533zM383.308 752.495l-18.838 0.003-21.112-0.003-10.808-40.327-66.148-261.882 57.439-0.381 40.492 159.386 38.491-159.386 57.439 0.381-66.148 261.882L383.308 752.495z" p-id="2867" fill="#888"></path></svg>