<?xml version="1.0" standalone="no"?><!DOCTYPE svg PUBLIC "-//W3C//DTD SVG 1.1//EN" "http://www.w3.org/Graphics/SVG/1.1/DTD/svg11.dtd"><svg t="1512398472950" class="icon" style="" viewBox="0 0 1024 1024" version="1.1" xmlns="http://www.w3.org/2000/svg" p-id="14029" xmlns:xlink="http://www.w3.org/1999/xlink" width="64" height="64"><defs><style type="text/css"></style></defs><path d="M511.998976 959.488c-247.131136 0-447.486976-200.35584-447.486976-447.488s200.35584-447.488 447.486976-447.488c247.13216 0 447.488 200.35584 447.488 447.488S759.131136 959.488 511.998976 959.488L511.998976 959.488zM752.4608 822.069248c-3.248128-4.790272-18.983936-23.944192-22.147072-28.389376-5.387264-7.698432-10.861568-15.478784-15.734784-23.090176-0.258048-0.340992-27.107328-36.427776-123.993088-40.873984-33.778688 0-58.233856-25.22624-58.319872-60.20096l-0.59904-18.300928c0-2.649088-0.340992 2.909184 0 0l0-19.667968 19.582976-19.580928c14.36672-6.67136 32.581632-17.871872 47.033344-28.817408l2.649088-1.79712c11.459584-7.266304 27.365376-22.490112 28.904448-28.30336l0.683008-7.524352c7.353344-37.712896 18.899968-98.08384 18.899968-121.684992 0-92.439552-44.896256-137.419776-137.419776-137.419776-93.806592 0-137.418752 43.6992-137.418752 137.419776 0 24.200192 11.542528 84.230144 18.89792 121.684992l0.684032 6.84032c1.197056 6.158336 15.647744 20.696064 28.474368 28.73344l1.881088 1.195008c15.478784 10.85952 33.95072 22.918144 48.231424 29.674496l19.580928 19.580928 0 19.667968c0.34304 2.651136 0-2.907136 0 0l-0.596992 18.300928c0 34.889728-24.456192 60.20096-56.610816 60.20096l-4.103168 9.578496c-102.444032 4.190208-121.51296 31.210496-121.51296 31.210496-4.960256 7.7824-10.433536 15.47776-15.8208 23.259136-3.165184 4.361216-18.89792 23.515136-22.148096 28.305408 66.530304 51.65056 149.7344 82.690048 240.461824 82.690048C602.727424 904.759296 685.93152 873.719808 752.4608 822.069248L752.4608 822.069248zM511.998976 119.32672c-216.860672 0-392.67328 175.813632-392.67328 392.67328 0 111.337472 46.517248 211.5584 120.91392 283.047936 7.867392-11.715584 16.248832-32.067584 23.688192-43.783168-0.001024 0 34.546688-56.694784 165.38112-61.996032 13.340672 0 20.009984-8.722432 20.009984-22.061056l0 8.8064c0-10.774528 0-19.326976 0-19.326976 0-2.649088-0.427008-5.129216-0.596992-7.69536-14.96576-7.09632-32.323584-16.846848-52.420608-30.869504-0.002048 0-49.682432-30.527488-49.682432-64.820224 0 0-20.608-96.970752-20.608-135.878656 0-96.03072 41.046016-186.075136 185.98912-186.075136 143.06304 0 185.991168 90.044416 185.991168 186.075136 0 37.966848-20.608 135.878656-20.608 135.878656 0 33.35168-49.68448 64.820224-49.68448 64.820224-19.667968 14.879744-37.1968 24.797184-52.5056 31.895552-0.083968 2.30912-0.512 4.361216-0.512 6.669312 0-0.002048 0 8.552448 0 19.326976l0-8.8064c0 13.338624 6.669312 22.061056 20.011008 22.061056 132.800512 5.986304 165.38112 61.996032 165.38112 61.996032 7.43936 11.715584 15.819776 32.067584 23.686144 43.783168 74.481664-71.489536 121.00096-171.710464 121.00096-283.047936C904.759296 295.141376 728.859648 119.32672 511.998976 119.32672L511.998976 119.32672z" p-id="14030" fill="#888888"></path></svg>