<?xml version="1.0" standalone="no"?><!DOCTYPE svg PUBLIC "-//W3C//DTD SVG 1.1//EN" "http://www.w3.org/Graphics/SVG/1.1/DTD/svg11.dtd"><svg t="1512395445858" class="icon" style="" viewBox="0 0 1024 1024" version="1.1" xmlns="http://www.w3.org/2000/svg" p-id="2452" xmlns:xlink="http://www.w3.org/1999/xlink" width="32" height="32"><defs><style type="text/css"></style></defs><path d="M512.4096 416.3584c48.64 0 88.1664-39.5264 88.1664-88.1664 0-48.64-39.5264-88.1664-88.1664-88.1664-48.64 0-88.1664 39.5264-88.1664 88.1664C424.2432 376.832 463.7696 416.3584 512.4096 416.3584L512.4096 416.3584zM512.4096 282.0096c25.4976 0 46.2848 20.7872 46.2848 46.2848 0 25.4976-20.7872 46.2848-46.2848 46.2848-25.4976 0-46.2848-20.7872-46.2848-46.2848C466.1248 302.6944 486.912 282.0096 512.4096 282.0096L512.4096 282.0096zM512.4096 282.0096" p-id="2453" fill="#888"></path><path d="M600.576 697.344c0-48.64-39.5264-88.1664-88.1664-88.1664-48.64 0-88.1664 39.5264-88.1664 88.1664 0 48.64 39.5264 88.1664 88.1664 88.1664C561.0496 785.5104 600.576 745.984 600.576 697.344L600.576 697.344zM466.1248 697.344c0-25.4976 20.7872-46.2848 46.2848-46.2848 25.4976 0 46.2848 20.7872 46.2848 46.2848 0 25.4976-20.7872 46.2848-46.2848 46.2848C486.912 743.6288 466.1248 722.8416 466.1248 697.344L466.1248 697.344zM466.1248 697.344" p-id="2454" fill="#888"></path><path d="M696.6272 599.1424c48.64 0 88.1664-39.5264 88.1664-88.1664 0-48.64-39.5264-88.1664-88.1664-88.1664-48.64 0-88.1664 39.5264-88.1664 88.1664C608.3584 559.616 647.9872 599.1424 696.6272 599.1424L696.6272 599.1424zM696.6272 464.6912c25.4976 0 46.2848 20.7872 46.2848 46.2848 0 25.4976-20.7872 46.2848-46.2848 46.2848-25.4976 0-46.2848-20.7872-46.2848-46.2848C650.3424 485.4784 671.0272 464.6912 696.6272 464.6912L696.6272 464.6912zM696.6272 464.6912" p-id="2455" fill="#888"></path><path d="M327.4752 426.496c-48.64 0-88.1664 39.5264-88.1664 88.1664 0 48.64 39.5264 88.1664 88.1664 88.1664 48.64 0 88.1664-39.5264 88.1664-88.1664C415.6416 466.0224 376.0128 426.496 327.4752 426.496L327.4752 426.496zM327.4752 560.8448c-25.4976 0-46.2848-20.7872-46.2848-46.2848 0-25.4976 20.7872-46.2848 46.2848-46.2848s46.2848 20.7872 46.2848 46.2848C373.6576 540.16 352.9728 560.8448 327.4752 560.8448L327.4752 560.8448zM327.4752 560.8448" p-id="2456" fill="#888"></path><path d="M870.6048 856.9856 687.616 856.9856c36.1472-18.432 69.0176-42.2912 97.9968-71.2704 35.5328-35.5328 63.3856-76.8 82.8416-122.88 20.1728-47.616 30.4128-98.304 30.4128-150.4256 0-52.1216-10.24-102.8096-30.4128-150.4256-19.456-45.9776-47.3088-87.3472-82.8416-122.88-35.5328-35.5328-76.8-63.3856-122.88-82.8416-47.616-20.1728-98.304-30.4128-150.4256-30.4128-52.1216 0-102.8096 10.24-150.4256 30.4128-45.9776 19.456-87.3472 47.3088-122.88 82.8416-35.5328 35.5328-63.3856 76.8-82.8416 122.88C136.192 409.6 125.952 460.288 125.952 512.4096c0 52.1216 10.24 102.8096 30.4128 150.4256 19.456 45.9776 47.3088 87.3472 82.8416 122.88 35.5328 35.5328 76.8 63.3856 122.88 82.8416 47.616 20.1728 98.304 30.4128 150.4256 30.4128 1.9456 0 3.9936 0 5.9392 0 0.4096 0 0.9216 0 1.3312 0l350.9248 0c11.5712 0 20.992-9.4208 20.992-20.992C891.5968 866.304 882.176 856.9856 870.6048 856.9856L870.6048 856.9856zM268.8 756.0192c-31.6416-31.6416-56.5248-68.5056-73.8304-109.568-17.92-42.496-27.0336-87.552-27.0336-134.144s9.1136-91.648 27.0336-134.144c17.3056-41.0624 42.1888-77.824 73.8304-109.568 31.6416-31.6416 68.5056-56.5248 109.568-73.8304 42.496-17.92 87.552-27.0336 134.144-27.0336 46.4896 0 91.648 9.1136 134.144 27.0336 41.0624 17.3056 77.9264 42.1888 109.568 73.8304 31.6416 31.6416 56.5248 68.5056 73.8304 109.568 17.92 42.496 27.0336 87.552 27.0336 134.144s-9.1136 91.648-27.0336 134.144c-17.3056 41.0624-42.1888 77.9264-73.8304 109.568-31.6416 31.6416-68.5056 56.5248-109.568 73.8304-42.496 17.92-87.552 27.0336-134.144 27.0336-46.4896 0-91.648-9.1136-134.144-27.0336C337.3056 812.544 300.4416 787.6608 268.8 756.0192L268.8 756.0192zM268.8 756.0192" p-id="2457" fill="#888"></path></svg>